<?xml version="1.0" standalone="no"?>
<!DOCTYPE svg PUBLIC "-//W3C//DTD SVG 20010904//EN"
 "http://www.w3.org/TR/2001/REC-SVG-20010904/DTD/svg10.dtd">
<svg version="1.0" xmlns="http://www.w3.org/2000/svg"
 width="128.000000pt" height="128.000000pt" viewBox="0 0 128.000000 128.000000"
 preserveAspectRatio="xMidYMid meet">
<metadata>
Created by potrace 1.14, written by Peter Selinger 2001-2017
</metadata>
<g transform="translate(0.000000,128.000000) scale(0.100000,-0.100000)"
fill="#000000" stroke="none">
<path d="M169 1182 c-2 -6 -11 -12 -19 -14 -20 -4 -39 -29 -40 -50 0 -10 -4
-18 -9 -18 -6 0 -6 -12 -1 -28 4 -16 4 -36 -2 -45 -5 -10 -5 -17 -1 -17 4 0 8
-16 8 -35 0 -19 -4 -35 -9 -35 -5 0 -3 -6 3 -13 6 -8 8 -16 5 -20 -9 -8 -12
-57 -4 -57 8 0 4 -56 -5 -71 -4 -5 -3 -9 2 -9 4 0 8 -20 8 -45 0 -25 -3 -45
-7 -45 -4 0 -4 -11 1 -23 5 -13 6 -30 1 -37 -5 -7 -5 -23 0 -35 4 -12 4 -29
-1 -38 -6 -9 -6 -17 -2 -17 4 0 8 -16 8 -35 0 -19 -4 -35 -9 -35 -5 0 -3 -6 3
-13 6 -8 8 -16 5 -20 -9 -8 -12 -57 -4 -57 8 0 4 -56 -5 -71 -4 -5 -3 -9 2 -9
12 0 10 -84 -2 -92 -6 -5 -5 -8 3 -8 7 0 10 -5 7 -10 -4 -6 -1 -17 5 -25 7 -8
9 -15 6 -15 -14 0 21 -28 40 -32 12 -2 18 -11 16 -23 -2 -18 -2 -19 8 -2 7 11
19 16 36 13 13 -3 24 0 24 5 0 6 7 3 16 -5 18 -19 28 -21 18 -4 -5 7 -2 9 8 5
9 -3 21 0 28 6 9 8 11 8 7 1 -4 -7 3 -11 18 -11 14 0 22 3 19 8 -3 5 0 9 5 9
6 0 11 -4 11 -9 0 -5 7 -12 16 -15 9 -4 13 -2 8 5 -4 7 -1 10 7 7 8 -3 23 -1
34 5 18 9 19 9 5 -8 -14 -17 -13 -18 5 -8 11 5 27 9 35 8 8 -1 21 4 29 9 12 9
13 8 6 -3 -6 -11 -4 -13 7 -8 9 3 21 0 28 -6 10 -9 11 -9 5 2 -6 10 -4 13 7 8
9 -3 21 0 28 6 10 9 11 9 5 -2 -6 -10 -4 -13 7 -8 9 3 21 0 28 -6 10 -9 11 -9
5 2 -5 9 -3 12 6 9 8 -3 23 -1 34 5 18 9 19 9 5 -8 -14 -17 -14 -18 8 -6 12 6
22 8 22 4 0 -4 5 -1 10 7 5 8 10 10 10 4 0 -7 7 -15 16 -18 10 -4 13 -2 8 6
-5 7 -2 9 8 5 9 -3 21 0 28 6 9 8 11 8 7 1 -4 -7 3 -12 18 -12 14 1 22 4 19 9
-3 5 0 9 5 9 6 0 11 -4 11 -9 0 -5 7 -12 16 -15 9 -4 13 -2 8 5 -4 7 -1 10 7
7 8 -3 23 -1 34 5 18 9 19 9 5 -8 -14 -17 -13 -18 5 -8 11 5 27 9 35 8 8 -1
21 4 29 9 12 9 13 8 6 -3 -6 -11 -4 -13 7 -8 9 3 21 0 28 -6 10 -9 11 -9 5 2
-6 10 -4 13 7 8 9 -3 21 0 28 6 10 9 11 9 6 0 -8 -15 10 -18 19 -3 4 7 13 7
26 0 16 -9 21 -7 29 15 5 14 14 25 19 25 5 0 8 16 6 35 -1 26 2 35 11 31 8 -3
11 0 7 10 -3 7 -10 14 -17 14 -6 0 -4 5 4 10 10 6 11 10 3 10 -7 0 -13 5 -13
11 0 5 5 7 12 3 7 -5 8 -3 4 5 -12 19 -14 101 -3 101 5 0 3 8 -4 17 -10 11
-10 14 -1 9 6 -4 12 -2 12 3 0 6 -4 11 -10 11 -5 0 -10 5 -10 11 0 5 5 7 12 3
7 -5 8 -3 4 5 -12 19 -14 101 -3 101 5 0 3 8 -4 17 -10 11 -10 14 -1 9 6 -4
12 -2 12 3 0 6 -4 11 -10 11 -5 0 -10 5 -10 11 0 5 5 7 12 3 7 -5 8 -3 4 5
-12 19 -14 101 -3 101 5 0 3 8 -4 17 -10 11 -10 14 -1 9 6 -4 12 -2 12 3 0 6
-4 11 -10 11 -5 0 -10 5 -10 11 0 5 5 7 12 3 7 -5 8 -3 4 5 -12 19 -14 101 -3
101 5 0 3 8 -4 17 -10 11 -10 14 -1 9 6 -4 12 -2 12 3 0 6 -4 11 -10 11 -5 0
-10 5 -10 11 0 5 5 7 12 3 7 -5 8 -3 4 5 -12 19 -14 101 -3 101 5 0 3 8 -4 17
-10 11 -10 14 -1 9 6 -4 12 -2 12 3 0 6 -4 11 -10 11 -5 0 -10 5 -10 11 0 5 4
8 8 5 10 -6 8 21 -4 49 -15 36 -43 58 -73 58 -17 0 -28 5 -24 10 4 6 1 7 -8 1
-17 -10 -209 -12 -216 -1 -2 4 -10 4 -16 0 -19 -12 -40 -13 -54 -1 -7 6 -13 7
-13 2 0 -5 -40 -9 -89 -9 -52 0 -87 4 -84 9 4 5 0 6 -8 0 -17 -10 -209 -12
-216 -1 -2 4 -10 4 -16 0 -19 -12 -40 -13 -54 -1 -7 6 -13 6 -13 1 0 -12 -103
-11 -111 1 -4 4 -8 4 -10 -2z"/>
<path d="M1185 971 c-3 -5 -2 -12 3 -15 5 -3 9 1 9 9 0 17 -3 19 -12 6z"/>
<path d="M1185 811 c-3 -5 -2 -12 3 -15 5 -3 9 1 9 9 0 17 -3 19 -12 6z"/>
<path d="M1185 651 c-3 -5 -2 -12 3 -15 5 -3 9 1 9 9 0 17 -3 19 -12 6z"/>
<path d="M1185 491 c-3 -5 -2 -12 3 -15 5 -3 9 1 9 9 0 17 -3 19 -12 6z"/>
<path d="M1185 331 c-3 -5 -2 -12 3 -15 5 -3 9 1 9 9 0 17 -3 19 -12 6z"/>
</g>
</svg>
