<svg width="69" height="69" viewBox="0 0 69 69" fill="none" xmlns="http://www.w3.org/2000/svg">
<g opacity="0.1" clip-path="url(#clip0_99_1952)">
<path d="M67.2659 12.8689C67.2881 13.7336 66.8806 14.439 66.2452 15.0708C58.8781 22.423 51.5194 29.7854 44.1591 37.1462C33.8944 47.4091 23.6297 57.6704 13.3667 67.9333C11.9453 69.3544 10.2517 69.3561 8.82685 67.9333C6.21187 65.3188 3.59688 62.7077 0.987034 60.0897C-0.335015 58.7645 -0.32474 57.0283 1.00416 55.6979C18.6532 38.0519 36.3022 20.4043 53.9512 2.76006C55.3537 1.35777 57.0525 1.35948 58.4534 2.76006C61.0803 5.38487 63.7022 8.01481 66.336 10.6345C66.9508 11.2423 67.2864 11.9512 67.2659 12.8689ZM56.222 8.83495C52.3089 12.7473 48.3993 16.6529 44.553 20.4985C45.8631 21.8169 47.1988 23.1627 48.4832 24.4554C52.3671 20.5738 56.2751 16.6683 60.1607 12.785C58.8609 11.4837 57.532 10.1499 56.222 8.83495Z" fill="#0FBC92"/>
<path d="M11.5889 14.1213C14.435 13.2498 17.1476 12.4126 19.8671 11.5976C20.2181 11.4931 20.3928 11.3219 20.4973 10.9743C21.2713 8.40087 22.0642 5.83429 22.8503 3.26427C22.8982 3.10846 22.9513 2.95265 23.0403 2.68555C23.4428 3.99024 23.8127 5.18879 24.1809 6.38733C24.6501 7.91632 25.1313 9.44018 25.5766 10.976C25.681 11.3356 25.866 11.4948 26.2102 11.5976C28.7841 12.3698 31.3528 13.1625 33.9216 13.9484C34.062 13.9912 34.2024 14.0409 34.4644 14.1282C34.0877 14.2532 33.8222 14.3456 33.5551 14.4278C31.0994 15.1812 28.6454 15.938 26.1862 16.6759C25.8574 16.7735 25.6879 16.9225 25.5868 17.2615C24.8299 19.787 24.0473 22.3039 23.2732 24.8243C23.2099 25.0332 23.1397 25.2404 23.0301 25.5794C22.816 24.8945 22.6413 24.3415 22.4718 23.785C21.8108 21.6225 21.1446 19.46 20.4973 17.2923C20.3945 16.9465 20.2216 16.7753 19.8671 16.6674C17.2281 15.8763 14.596 15.0596 11.9622 14.2498C11.8851 14.2275 11.8098 14.1984 11.5889 14.1213Z" fill="#0FBC92"/>
<path d="M56.6787 32.6978C58.1652 32.244 59.5266 31.8143 60.8966 31.4205C61.2699 31.3126 61.4429 31.1242 61.5491 30.7544C61.9395 29.4001 62.3693 28.0577 62.8232 26.5869C62.9173 26.8403 62.979 26.9841 63.0252 27.1331C63.4003 28.3522 63.7924 29.5679 64.1349 30.7955C64.2377 31.1636 64.4295 31.316 64.7703 31.4153C66.1386 31.8177 67.5017 32.2406 69.0019 32.6978C67.8785 33.0453 66.9006 33.4546 65.8817 33.6343C64.623 33.8552 64.0082 34.5041 63.7719 35.7386C63.5818 36.7334 63.1896 37.6888 62.8848 38.6631C62.8814 38.6733 62.8574 38.6768 62.7889 38.7076C62.4961 37.7522 62.1073 36.8207 61.9378 35.8516C61.7066 34.5315 61.0439 33.8415 59.7081 33.6121C58.7166 33.4409 57.7661 33.0351 56.6787 32.6978Z" fill="#0FBC92"/>
<path d="M36.304 -0.00012207C36.775 1.54086 37.2048 2.92089 37.6124 4.30778C37.7049 4.62111 37.8641 4.7735 38.1792 4.86595C39.5492 5.26661 40.9089 5.69637 42.4108 6.15867C42.1488 6.25626 42.0067 6.31961 41.8594 6.36413C40.623 6.74424 39.3882 7.1312 38.1467 7.49076C37.8453 7.57808 37.7049 7.73218 37.6192 8.02325C37.2048 9.42212 36.7715 10.8159 36.304 12.3414C35.8519 10.8672 35.4255 9.52314 35.0351 8.16879C34.9186 7.76642 34.732 7.56096 34.3141 7.44453C32.9732 7.06956 31.6477 6.63808 30.199 6.19291C30.4284 6.10216 30.5552 6.04395 30.687 6.00286C31.9235 5.62104 33.153 5.22209 34.398 4.87623C34.7696 4.7735 34.9152 4.58002 35.0145 4.241C35.4187 2.87124 35.8434 1.50833 36.304 -0.00012207Z" fill="#0FBC92"/>
<path d="M15.7565 6.22793C14.3968 6.64571 13.0388 7.07376 11.6739 7.47271C11.3434 7.56859 11.1739 7.72269 11.0763 8.0617C10.679 9.42975 10.2457 10.7875 9.79188 12.2652C9.6994 12.0374 9.63775 11.9142 9.59665 11.784C9.21648 10.5495 8.83117 9.31503 8.47154 8.0754C8.37564 7.74837 8.2198 7.57544 7.88073 7.47613C6.51244 7.0789 5.15272 6.64742 3.66113 6.19027C3.91801 6.09438 4.06014 6.03103 4.20913 5.98651C5.42843 5.61154 6.6443 5.22458 7.86874 4.87358C8.20268 4.7777 8.37222 4.61675 8.46983 4.28459C8.87055 2.91483 9.29697 1.55363 9.76105 0.0400391C9.8638 0.332826 9.92545 0.493772 9.97683 0.659856C10.3467 1.86182 10.7269 3.06207 11.0745 4.27089C11.1704 4.60306 11.3263 4.77085 11.6619 4.86845C13.0302 5.26739 14.3899 5.69886 15.7531 6.11835C15.7548 6.15431 15.7565 6.19027 15.7565 6.22793Z" fill="#0FBC92"/>
</g>
<defs>
<clipPath id="clip0_99_1952">
<rect width="69" height="69" fill="white"/>
</clipPath>
</defs>
</svg>
