<svg width="27" height="27" viewBox="0 0 27 27" fill="none" xmlns="http://www.w3.org/2000/svg">
<path d="M13.3441 26.3485C13.991 25.7419 14.5262 24.4658 14.6801 23.6715C14.8621 22.7318 15.2494 21.7494 15.3846 20.7936C15.6652 18.8099 15.9442 16.8639 15.7838 14.9488C15.7542 14.5947 15.6056 14.2268 15.5302 13.8837C15.4115 13.3441 15.4881 12.7317 15.3797 12.1878C15.241 11.4917 15.1484 10.616 14.8589 9.98954C14.3634 8.91751 14.1718 7.67639 13.6746 6.60061C13.1045 5.36697 12.5304 4.02738 11.6201 3.05664" stroke="#109E7B" stroke-width="0.810553" stroke-linecap="round"/>
<path d="M16.8184 4.15493C16.4646 3.86074 15.5782 3.99179 15.102 3.8707C14.4289 3.69953 13.6743 3.60307 13.0909 3.27212C12.5489 2.96466 11.8295 2.9035 11.3225 2.53502C11.2278 2.4662 10.645 1.87344 10.6142 2.21995C10.4973 3.53603 11.32 4.7086 11.3738 5.98279C11.4148 6.95259 11.4886 8.01499 11.0308 8.99922" stroke="#109E7B" stroke-width="0.810553" stroke-linecap="round"/>
</svg>
