<svg width="78" height="10" viewBox="0 0 78 10" fill="none" xmlns="http://www.w3.org/2000/svg">
<path d="M0.78108 1.06596C13.8229 2.35234 26.8647 3.63871 39.9065 4.92509C45.9417 5.52037 52.0601 5.89346 58.0398 6.94335C60.6154 7.39556 63.1925 7.68127 65.7936 7.93783C69.406 8.29414 73.159 8.98821 76.7831 8.98774C77.4574 8.98765 78.2018 9.00858 76.9801 8.88807C62.6928 7.47886 48.3347 6.11499 33.9728 6.7813C26.0189 7.15031 18.0163 7.74082 10.1039 8.66344C8.22674 8.88232 6.339 9.06979 4.47182 9.35843C3.05047 9.57816 7.291 8.78654 8.70534 8.52549C25.4536 5.43418 42.1352 2.42052 59.1982 2.01301C61.5085 1.95783 63.7925 1.99345 66.0867 1.68864C66.5435 1.62796 66.8853 1.46116 67.3467 1.50667" stroke="#109E7B" stroke-width="0.590173" stroke-linecap="round"/>
</svg>
