<?xml version="1.0" encoding="utf-8"?>
<!-- Generator: Adobe Illustrator 24.1.1, SVG Export Plug-In . SVG Version: 6.00 Build 0)  -->
<svg version="1.1" id="Layer_1" xmlns="http://www.w3.org/2000/svg" xmlns:xlink="http://www.w3.org/1999/xlink" x="0px" y="0px"
	 viewBox="0 0 512 512" style="enable-background:new 0 0 512 512;" xml:space="preserve">
<style type="text/css">
	.st0{clip-path:url(#SVGID_2_);fill:#000066;}
	.st1{clip-path:url(#SVGID_2_);fill:#FFFFFF;}
	.st2{clip-path:url(#SVGID_2_);fill:#CC0000;}
</style>
<g>
	<g>
		<defs>
			<rect id="SVGID_1_" y="64" width="512" height="384"/>
		</defs>
		<clipPath id="SVGID_2_">
			<use xlink:href="#SVGID_1_"  style="overflow:visible;"/>
		</clipPath>
		<rect x="-128" y="64" class="st0" width="768" height="384"/>
		<path class="st1" d="M-128,64v42.9L554.1,448H640v-42.9L-42.1,64H-128z M640,64v42.9L-42.1,448H-128v-42.9L554.1,64H640z"/>
		<path class="st1" d="M192,64v384h128V64H192z M-128,192v128h768V192H-128z"/>
		<path class="st2" d="M-128,217.6v76.8h768v-76.8H-128z M217.6,64v384h76.8V64H217.6z M-128,448l256-128h57.2l-256,128H-128z
			 M-128,64l256,128H70.8L-128,92.6V64z M326.8,192l256-128H640L384,192H326.8z M640,448L384,320h57.2L640,419.4V448z"/>
	</g>
</g>
</svg>
